<svg xmlns="http://www.w3.org/2000/svg" width="256" height="256" viewBox="0 0 100 100"><rect width="100" height="100" rx="20" fill="#001b2e"></rect><path fill="#fff" d="M41.61 81.55L41.61 76.81Q41.87 75.84 42.44 73.33Q43.01 70.83 43.63 68.02Q44.24 65.21 44.77 62.74Q45.30 60.28 45.56 59.23L45.56 59.23Q45.83 57.91 45.87 55.98Q45.91 54.04 45.96 52.11Q46.00 50.18 45.96 48.51Q45.91 46.84 45.91 45.78L45.91 45.78L45.91 38.22Q45.91 37.96 45.74 36.82Q45.56 35.67 45.34 34.27Q45.12 32.86 44.90 31.54Q44.68 30.22 44.59 29.61L44.59 29.61Q44.42 28.64 44.11 27.41Q43.80 26.18 43.28 25.04Q42.75 23.90 41.87 23.11Q40.99 22.31 39.67 22.31L39.67 22.31Q38.09 22.31 35.63 23.50Q33.17 24.69 30.80 26.49Q28.42 28.29 26.58 30.31Q24.73 32.33 24.47 34.00L24.47 34.00L22.01 48.07L22.01 48.51Q21.83 49.38 21.57 50.88Q21.30 52.37 20.95 53.78Q20.60 55.19 20.42 56.28Q20.25 57.38 20.16 57.56L20.16 57.56Q19.99 58.09 19.68 59.32Q19.37 60.55 18.93 61.95Q18.49 63.36 18.14 64.55Q17.79 65.73 17.61 66.08L17.61 66.08Q17.44 66.52 16.82 67.93Q16.21 69.34 15.50 71.01Q14.80 72.68 14.14 74.13Q13.48 75.58 13.39 75.93L13.39 75.93Q12.87 77.16 12.47 78.26Q12.08 79.36 11.50 80.19Q10.93 81.03 10.05 81.51Q9.17 81.99 7.68 81.99L7.68 81.99Q7.42 81.99 6.98 81.95Q6.54 81.90 6.45 81.90L6.45 81.90L6.10 81.03Q6.10 80.94 6.05 80.59Q6.01 80.23 6.01 79.75Q6.01 79.27 6.01 78.87Q6.01 78.48 6.01 78.21L6.01 78.21Q6.01 66.52 9.97 55.36L9.97 55.36L9.97 54.92Q9.97 54.75 10.36 53.52Q10.76 52.29 11.28 50.75Q11.81 49.21 12.38 47.63Q12.95 46.04 13.39 45.08L13.39 45.08Q13.66 44.38 14.49 42.66Q15.33 40.95 16.29 39.06Q17.26 37.17 18.14 35.45Q19.02 33.74 19.37 33.04L19.37 33.04Q19.81 31.81 19.81 30.31Q19.81 28.82 19.81 27.50L19.81 27.50Q19.81 27.24 19.81 26.75Q19.81 26.27 19.81 25.74Q19.81 25.21 19.81 24.73Q19.81 24.25 19.81 24.07L19.81 24.07Q19.55 21.96 17.44 21.96L17.44 21.96L17.17 21.96Q16.82 22.05 16.21 22.18Q15.59 22.31 15.50 22.31L15.50 22.31L-0.76 30.05Q-2.16 30.75-2.78 30.88Q-3.39 31.02-4.62 31.02L-4.62 31.02Q-6.29 31.02-7.39 30.22Q-8.49 29.43-8.49 27.50L-8.49 27.50Q-8.49 26.62-7.66 25.96Q-6.82 25.30-6.03 25.30L-6.03 25.30Q-5.06 25.30-4.49 25.79Q-3.92 26.27-3.13 26.27L-3.13 26.27Q-0.05 26.27 2.67 24.82Q5.40 23.37 8.08 21.70Q10.76 20.03 13.57 18.62Q16.38 17.22 19.63 17.22L19.63 17.22Q20.78 17.22 21.61 17.83Q22.45 18.45 23.11 19.41Q23.76 20.38 24.16 21.39Q24.56 22.40 25.00 23.19L25.00 23.19Q24.82 23.90 24.95 24.56Q25.08 25.21 25.35 25.74L25.35 25.74Q26.93 24.34 28.64 22.89Q30.36 21.44 32.29 20.29Q34.22 19.15 36.33 18.36Q38.44 17.57 40.55 17.57L40.55 17.57Q43.28 17.57 45.08 19.02Q46.88 20.47 47.98 22.75Q49.08 25.04 49.65 27.90Q50.22 30.75 50.53 33.65Q50.83 36.55 51.01 39.23Q51.19 41.91 51.45 43.76L51.45 43.76Q52.59 41.21 54.31 38.22Q56.02 35.23 58.13 32.33Q60.24 29.43 62.79 26.80Q65.34 24.16 68.15 22.14Q70.96 20.12 73.99 18.89Q77.03 17.66 80.19 17.66L80.19 17.66Q83.97 17.66 86.04 19.33Q88.10 21.00 88.98 23.59Q89.86 26.18 89.99 29.30Q90.12 32.42 90.12 35.32L90.12 35.32L90.12 40.77L87.05 73.38Q87.05 73.47 87.05 74.04Q87.05 74.61 87.05 74.87L87.05 74.87Q87.05 75.75 87.05 76.46Q87.05 77.16 87.49 78.13L87.49 78.13Q87.75 78.13 88.67 78.17Q89.59 78.21 89.86 78.21L89.86 78.21Q93.55 78.21 96.80 77.07Q100.05 75.93 103.39 74.17L103.39 74.17Q104.01 73.82 104.36 73.51Q104.71 73.20 105.06 72.98Q105.42 72.76 105.85 72.59Q106.29 72.41 107.00 72.41L107.00 72.41Q107.79 72.41 108.14 72.59Q108.49 72.76 108.49 73.64L108.49 73.64Q108.49 74.79 107.30 75.88Q106.12 76.98 104.23 77.95Q102.34 78.92 100.05 79.75Q97.77 80.59 95.62 81.16Q93.46 81.73 91.70 82.08Q89.95 82.43 89.16 82.43L89.16 82.43Q85.11 82.43 83.49 80.81Q81.86 79.18 81.86 74.96L81.86 74.96L81.86 72.50L84.85 38.22Q84.85 38.13 84.85 37.65Q84.85 37.17 84.89 36.51Q84.94 35.85 84.94 35.19Q84.94 34.53 84.94 34.18L84.94 34.18Q84.94 32.69 85.02 30.66Q85.11 28.64 84.76 26.80Q84.41 24.95 83.35 23.63Q82.30 22.31 80.19 22.31L80.19 22.31Q79.31 22.31 78.08 22.71Q76.85 23.11 75.62 23.59Q74.39 24.07 73.25 24.60Q72.10 25.13 71.58 25.39L71.58 25.39Q67.27 27.50 63.93 31.15Q60.59 34.79 58.04 39.23Q55.49 43.67 53.78 48.42Q52.07 53.16 51.01 57.56L51.01 57.56Q50.92 58.53 50.62 60.85Q50.31 63.18 49.91 65.86Q49.52 68.54 49.12 70.87Q48.73 73.20 48.55 74.17L48.55 74.17Q48.29 75.58 48.07 77.11Q47.85 78.65 47.41 79.93Q46.97 81.20 46.09 81.99Q45.21 82.78 43.54 82.78L43.54 82.78Q42.92 82.78 42.27 82.52Q41.61 82.26 41.61 81.55L41.61 81.55ZM12.08 65.21L12.08 65.21Q11.90 65.12 11.90 65.42Q11.90 65.73 12.08 65.64L12.08 65.64Q12.25 65.56 12.25 65.42Q12.25 65.29 12.08 65.21ZM16.73 48.33L16.73 48.07Q16.12 49.03 15.37 51.05Q14.62 53.08 14.01 55.45Q13.39 57.82 12.95 60.11Q12.51 62.39 12.51 63.89L12.51 63.89L12.51 64.33Q14.27 60.81 15.50 56.55Q16.73 52.29 16.73 48.33L16.73 48.33Z"></path></svg>